<svg width="506" height="506" xmlns="http://www.w3.org/2000/svg">
 <title>icon</title>

 <g>
  <title>Layer 1</title>
  <g id="svg_152">
   <g id="svg_138">
    <g id="svg_111" stroke="null" transform="rotate(-90 251 318.5)">
     <g id="svg_110" stroke="null">
      <path id="svg_87" stroke="null" fill="#FFA800" d="m365.46436,480.06253l-96.93903,0c-3.28601,0 -6.0246,-3.84698 -6.0246,-8.46301l0,-28.46594c0,-4.61606 2.73859,-8.46301 6.0246,-8.46301l96.939,0c3.28604,0 6.0246,3.84695 6.0246,8.46301l0,28.46594c0.00003,4.61603 -2.73856,8.46301 -6.02457,8.46301"/>
      <path id="svg_88" stroke="null" fill="#FFE100" d="m349.03421,480.06253l-80.50888,0c-3.28601,0 -6.0246,-3.84698 -6.0246,-8.46301l0,-28.46594c0,-4.61606 2.73859,-8.46301 6.0246,-8.46301l80.50888,0c3.28604,0 6.0246,3.84695 6.0246,8.46301l0,28.46594c0,4.61603 -2.73856,8.46301 -6.0246,8.46301"/>
      <path id="svg_89" stroke="null" fill="#FFA800" d="m349.03421,541.60962l-64.07813,0c-3.28601,0 -6.0246,-3.84705 -6.0246,-8.46301l0,-53.08505l76.67477,0l0,53.08505c-0.54745,4.61597 -3.28601,8.46301 -6.57205,8.46301"/>
      <path id="svg_90" stroke="null" fill="#FFE100" d="m332.6041,541.60962l-47.64801,0c-3.28601,0 -6.0246,-3.84705 -6.0246,-8.46301l0,-53.08505l60.24466,0l0,53.08505c-0.5481,4.61597 -3.28601,8.46301 -6.57205,8.46301"/>
      <path id="svg_91" stroke="null" fill="#FFA800" d="m234.02206,480.06253l-96.93903,0c-3.83347,0 -6.57204,-3.84698 -6.57204,-8.46301l0,-28.46594c0,-5.38504 2.73857,-9.23199 6.57204,-9.23199l96.93903,0c3.28604,0 6.0246,3.84695 6.0246,8.46295l0,28.466c-0.00064,5.38501 -2.73856,9.23199 -6.0246,9.23199"/>
      <path id="svg_92" stroke="null" fill="#FFE100" d="m217.59129,480.06253l-80.50826,0c-3.83347,0 -6.57204,-3.84698 -6.57204,-8.46301l0,-28.46594c0,-5.38504 2.73857,-9.23199 6.57204,-9.23199l80.50893,0c3.28601,0 6.0246,3.84695 6.0246,8.46295l0,28.466c-0.00067,5.38501 -2.73924,9.23199 -6.02527,9.23199"/>
      <path id="svg_93" stroke="null" fill="#FFA800" d="m217.59129,541.60962l-64.07813,0c-3.28601,0 -6.0246,-3.84705 -6.0246,-8.46301l0,-53.08505l76.67477,0l0,53.08505c-0.54745,4.61597 -3.28603,8.46301 -6.57205,8.46301"/>
      <g id="svg_98" stroke="null">
       <path id="svg_94" stroke="null" fill="#FFE100" d="m201.16116,541.60962l-47.64799,0c-3.28601,0 -6.0246,-3.84705 -6.0246,-8.46301l0,-53.08505l60.24464,0l0,53.08505c-0.54745,4.61597 -3.28603,8.46301 -6.57205,8.46301"/>
       <path id="svg_95" stroke="null" fill="#FFE100" d="m125.03387,103.85257l0,136.17398c0,5.38504 -2.73859,9.23203 -6.0246,9.23203l-20.26362,0c-3.83348,0 -6.57204,-3.84698 -6.57204,-8.46295l0,-136.94305c0,-4.61601 2.73856,-8.463 6.57204,-8.463l20.26426,0c3.28537,0 6.02396,3.84698 6.02396,8.463"/>
       <path id="svg_96" stroke="null" fill="#FFE100" d="m409.82635,103.85257l0,136.17398c0,4.61603 -2.73859,8.46301 -6.0246,8.46301l-20.26425,0c-3.28604,0 -6.0246,-3.84698 -6.0246,-8.46301l0,-136.17398c-0.54745,-4.61601 2.19046,-8.463 6.0246,-8.463l20.26425,0c3.28598,0 6.0246,3.84698 6.0246,8.463"/>
       <polygon id="svg_97" stroke="null" fill="#FFE100" points="125.03387451171875,118.47055053710938 125.03387451171875,226.17852783203125 146.9411163330078,226.17852783203125 146.9411163330078,433.90155029296875 223.6158905029297,433.90155029296875 223.6158905029297,226.17852783203125 278.38336181640625,226.17852783203125 278.38336181640625,433.90155029296875 355.0588073730469,433.90155029296875 355.0588073730469,226.17852783203125 376.9654235839844,226.17852783203125 376.9654235839844,118.47055053710938 "/>
      </g>
      <path id="svg_99" stroke="null" d="m217.59129,549.30347l-64.07813,0c-6.57205,0 -12.04918,-7.69293 -12.04918,-16.15601l0,-53.08499c0,-4.61597 2.19046,-7.69299 5.47649,-7.69299l76.67476,0c3.28601,0 5.47649,3.07703 5.47649,7.69299l0,53.08499c0.00066,8.46216 -4.92838,16.15601 -11.50043,16.15601zm-65.17369,-61.54788l0,45.39102c0,0.76904 0.54745,0.76904 0.54745,0.76904l64.07814,0c0.54744,0 0.54744,-0.76904 0.54744,-0.76904l0,-45.39102l-65.17303,0z"/>
      <path id="svg_100" stroke="null" d="m234.02206,487.75558l-96.93903,0c-6.57204,0 -12.04916,-7.69305 -12.04916,-16.15607l0,-28.46594c0,-9.23199 5.47647,-16.92593 12.04916,-16.92593l96.93903,0c6.57208,0 11.50107,7.69302 11.50107,16.15594l0,28.46603c0,9.23291 -4.92899,16.92596 -11.50107,16.92596zm-96.93903,-46.16101c-0.54744,0 -1.09555,0.76901 -1.09555,0.76901l0,28.46597c0,0.76904 0.54744,1.539 1.09555,1.539l96.93903,0c0.54745,0 0.54745,-0.76904 0.54745,-0.76904l0,-28.46597c0,-0.76904 -0.54745,-0.76904 -0.54745,-0.76904l-96.93903,0l0,-0.76993z"/>
      <path id="svg_101" stroke="null" d="m119.00928,256.95255l-20.26362,0c-6.5727,0 -12.0492,-7.69397 -12.0492,-16.15692l0,-136.94305c0,-8.463 5.4765,-16.15602 12.0492,-16.15602l20.26426,0c6.57205,0 11.50108,7.69302 11.50108,16.15602l0,136.17398c0,9.23203 -4.9297,16.92599 -11.50172,16.92599zm-20.26362,-153.869c-0.54744,0 -1.09555,0.76903 -1.09555,0.76903l0,136.17398c0,0.76907 0.54745,1.539 1.09555,1.539l20.26426,0c0.54744,0 0.54744,-0.76907 0.54744,-0.76907l0,-136.94391c0,0 0,-0.76903 -0.54744,-0.76903l-20.26426,0z"/>
      <path id="svg_102" stroke="null" d="m403.80176,256.95255l-20.26425,0c-6.57205,0 -12.04919,-7.69305 -12.04919,-16.15607l0,-136.94391c0.00064,-8.463 5.47711,-16.15602 12.0498,-16.15602l20.26425,0c6.57205,0 11.5011,7.69302 11.5011,16.15602l0,136.17398c0,9.23203 -4.92969,16.92599 -11.50171,16.92599zm-20.26364,-153.869c-0.54742,0 -1.09555,0.76903 -1.09555,0.76903l0,136.17398c0,0.76907 0.54745,0.76907 0.54745,0.76907l20.26425,0c0.54745,0 0.54745,-0.76907 0.54745,-0.76907l0,-136.17398c0.54745,0 0.54745,-0.76903 0,-0.76903l-20.26361,0z"/>
      <path id="svg_103" stroke="null" d="m349.03421,549.30347l-64.07813,0c-6.57205,0 -12.04919,-7.69293 -12.04919,-16.15601l0,-53.08499c0,-4.61597 2.19046,-7.69299 5.47647,-7.69299l76.6748,0c3.28601,0 5.4765,3.07703 5.4765,7.69299l0,53.08499c0.00064,8.46216 -4.92841,16.15601 -11.50046,16.15601zm-65.17368,-61.54788l0,45.39102c0,0.76904 0.54745,0.76904 0.54745,0.76904l64.07816,0c0.54742,0 0.54742,-0.76904 0.54742,-0.76904l0,-45.39102l-65.17303,0z"/>
      <path id="svg_104" stroke="null" d="m365.46436,487.75558l-96.93903,0c-6.57205,0 -12.04919,-7.69305 -12.04919,-16.15607l0,-28.46594c0,-9.23199 5.47647,-16.15598 11.50107,-16.15598l96.93903,0c6.57205,0 11.5011,7.69296 11.5011,16.15598l0,28.46594c0.5481,8.46301 -4.38092,16.15607 -10.95297,16.15607zm-96.93903,-46.16101c-0.54745,0 -0.54745,0.76901 -0.54745,0.76901l0,28.46597c0,0.76904 0.54745,0.76904 0.54745,0.76904l96.939,0c0.54745,0 0.54745,-0.76904 0.54745,-0.76904l0,-28.46597c0,-0.76901 -0.54745,-0.76901 -0.54745,-0.76901l-96.939,0z"/>
      <path id="svg_105" stroke="null" d="m355.05881,441.59457l-76.67545,0c-3.28601,0 -5.47647,-3.07706 -5.47647,-7.69302l0,-200.02997l-43.81451,0l0,200.02908c0,4.61597 -2.19046,7.69302 -5.47649,7.69302l-76.67477,0c-3.28603,0 -5.47649,-3.07706 -5.47649,-7.69302l0,-200.02908l-16.43011,0c-3.28603,0 -5.47649,-3.07703 -5.47649,-7.69305l0,-107.70798c0,-4.61601 2.19046,-7.69304 5.47649,-7.69304l251.93158,0c3.28601,0 5.47647,3.07703 5.47647,7.69304l0,107.70798c0,4.61603 -2.19046,7.69305 -5.47647,7.69305l-16.43015,0l0,200.02908c-0.00064,4.61685 -2.1911,7.69391 -5.47714,7.69391zm-71.19827,-15.38696l65.72116,0l0,-200.02997c0,-4.616 2.19046,-7.69305 5.47647,-7.69305l16.43015,0l0,-92.32101l-240.97731,0l0,92.32101l16.43011,0c3.28604,0 5.47649,3.077 5.47649,7.69305l0,200.02997l65.72115,0l0,-200.02997c0,-4.61606 2.19046,-7.69305 5.47649,-7.69305l54.76752,0c3.28601,0 5.47647,3.077 5.47647,7.69305l0,200.02997l0.00131,0z"/>
      <path id="svg_106" stroke="null" d="m168.84839,233.87158l-21.90727,0c-3.28603,0 -5.47649,-3.07703 -5.47649,-7.69305s2.19046,-7.69302 5.47649,-7.69302l21.90727,0c3.28601,0 5.47649,3.07703 5.47649,7.69302s-2.19048,7.69305 -5.47649,7.69305z"/>
      <path id="svg_107" stroke="null" d="m223.61589,233.87158l-10.95364,0c-3.28601,0 -5.47649,-3.07703 -5.47649,-7.69305s2.19048,-7.69302 5.47649,-7.69302l10.95364,0c3.28603,0 5.47649,3.07703 5.47649,7.69302s-2.19046,7.69305 -5.47649,7.69305z"/>
      <path id="svg_108" stroke="null" d="m311.24429,233.87158l-32.86093,0c-3.28601,0 -5.47647,-3.07703 -5.47647,-7.69305s2.19046,-7.69302 5.47647,-7.69302l32.8609,0c3.28604,0 5.47653,3.07703 5.47653,7.69302s-2.19049,7.69305 -5.4765,7.69305z"/>
      <path id="svg_109" stroke="null" d="m355.05881,233.87158l-10.95361,0c-3.28601,0 -5.4765,-3.07703 -5.4765,-7.69305s2.19049,-7.69302 5.4765,-7.69302l10.95361,0c3.28604,0 5.4765,3.07703 5.4765,7.69302s-2.19046,7.69305 -5.4765,7.69305z"/>
     </g>
    </g>
    <g id="svg_137" stroke="null" transform="rotate(-90 251 184.5)">
     <g id="svg_136" stroke="null">
      <path id="svg_113" stroke="null" fill="#FFA800" d="m365.46436,346.06253l-96.93903,0c-3.28601,0 -6.0246,-3.84698 -6.0246,-8.46301l0,-28.46594c0,-4.61606 2.73859,-8.46301 6.0246,-8.46301l96.939,0c3.28604,0 6.0246,3.84695 6.0246,8.46301l0,28.46594c0.00003,4.61603 -2.73856,8.46301 -6.02457,8.46301"/>
      <path id="svg_114" stroke="null" fill="#FFE100" d="m349.03421,346.06253l-80.50888,0c-3.28601,0 -6.0246,-3.84698 -6.0246,-8.46301l0,-28.46594c0,-4.61606 2.73859,-8.46301 6.0246,-8.46301l80.50888,0c3.28604,0 6.0246,3.84695 6.0246,8.46301l0,28.46594c0,4.61603 -2.73856,8.46301 -6.0246,8.46301"/>
      <path id="svg_115" stroke="null" fill="#FFA800" d="m349.03421,407.60962l-64.07813,0c-3.28601,0 -6.0246,-3.84705 -6.0246,-8.46301l0,-53.08505l76.67477,0l0,53.08505c-0.54745,4.61597 -3.28601,8.46301 -6.57205,8.46301"/>
      <path id="svg_116" stroke="null" fill="#FFE100" d="m332.6041,407.60962l-47.64801,0c-3.28601,0 -6.0246,-3.84705 -6.0246,-8.46301l0,-53.08505l60.24466,0l0,53.08505c-0.5481,4.61597 -3.28601,8.46301 -6.57205,8.46301"/>
      <path id="svg_117" stroke="null" fill="#FFA800" d="m234.02206,346.06253l-96.93903,0c-3.83347,0 -6.57204,-3.84698 -6.57204,-8.46301l0,-28.46594c0,-5.38504 2.73857,-9.23199 6.57204,-9.23199l96.93903,0c3.28604,0 6.0246,3.84695 6.0246,8.46295l0,28.466c-0.00064,5.38501 -2.73856,9.23199 -6.0246,9.23199"/>
      <path id="svg_118" stroke="null" fill="#FFE100" d="m217.59129,346.06253l-80.50826,0c-3.83347,0 -6.57204,-3.84698 -6.57204,-8.46301l0,-28.46594c0,-5.38504 2.73857,-9.23199 6.57204,-9.23199l80.50893,0c3.28601,0 6.0246,3.84695 6.0246,8.46295l0,28.466c-0.00067,5.38501 -2.73924,9.23199 -6.02527,9.23199"/>
      <path id="svg_119" stroke="null" fill="#FFA800" d="m217.59129,407.60962l-64.07813,0c-3.28601,0 -6.0246,-3.84705 -6.0246,-8.46301l0,-53.08505l76.67477,0l0,53.08505c-0.54745,4.61597 -3.28603,8.46301 -6.57205,8.46301"/>
      <g id="svg_124" stroke="null">
       <path id="svg_120" stroke="null" fill="#FFE100" d="m201.16116,407.60962l-47.64799,0c-3.28601,0 -6.0246,-3.84705 -6.0246,-8.46301l0,-53.08505l60.24464,0l0,53.08505c-0.54745,4.61597 -3.28603,8.46301 -6.57205,8.46301"/>
       <path id="svg_121" stroke="null" fill="#FFE100" d="m125.03387,-30.14743l0,136.17398c0,5.38504 -2.73859,9.23203 -6.0246,9.23203l-20.26361,0c-3.83348,0 -6.57204,-3.84699 -6.57204,-8.46296l0,-136.94305c0,-4.61601 2.73856,-8.463 6.57204,-8.463l20.26426,0c3.28537,0 6.02396,3.84699 6.02396,8.463"/>
       <path id="svg_122" stroke="null" fill="#FFE100" d="m409.82635,-30.14743l0,136.17398c0,4.61603 -2.73859,8.46301 -6.0246,8.46301l-20.26425,0c-3.28604,0 -6.0246,-3.84698 -6.0246,-8.46301l0,-136.17398c-0.54745,-4.61601 2.19046,-8.463 6.0246,-8.463l20.26425,0c3.28598,0 6.0246,3.84699 6.0246,8.463"/>
       <polygon id="svg_123" stroke="null" fill="#FFE100" points="125.03387451171875,-15.529449462890625 125.03387451171875,92.17852783203125 146.9411163330078,92.17852783203125 146.9411163330078,299.90155029296875 223.6158905029297,299.90155029296875 223.6158905029297,92.17852783203125 278.38336181640625,92.17852783203125 278.38336181640625,299.90155029296875 355.0588073730469,299.90155029296875 355.0588073730469,92.17852783203125 376.9654235839844,92.17852783203125 376.9654235839844,-15.529449462890625 "/>
      </g>
      <path id="svg_125" stroke="null" d="m217.59129,415.30347l-64.07813,0c-6.57205,0 -12.04918,-7.69293 -12.04918,-16.15601l0,-53.08499c0,-4.61597 2.19046,-7.69299 5.47649,-7.69299l76.67476,0c3.28601,0 5.47649,3.07703 5.47649,7.69299l0,53.08499c0.00066,8.46216 -4.92838,16.15601 -11.50043,16.15601zm-65.17369,-61.54788l0,45.39102c0,0.76904 0.54745,0.76904 0.54745,0.76904l64.07814,0c0.54744,0 0.54744,-0.76904 0.54744,-0.76904l0,-45.39102l-65.17303,0z"/>
      <path id="svg_126" stroke="null" d="m234.02206,353.75558l-96.93903,0c-6.57204,0 -12.04916,-7.69305 -12.04916,-16.15607l0,-28.46594c0,-9.23199 5.47647,-16.92593 12.04916,-16.92593l96.93903,0c6.57207,0 11.50108,7.69302 11.50108,16.15594l0,28.46603c0,9.23291 -4.92902,16.92596 -11.50108,16.92596zm-96.93903,-46.16101c-0.54744,0 -1.09555,0.76901 -1.09555,0.76901l0,28.46597c0,0.76904 0.54744,1.539 1.09555,1.539l96.93903,0c0.54747,0 0.54747,-0.76904 0.54747,-0.76904l0,-28.46597c0,-0.76904 -0.54747,-0.76904 -0.54747,-0.76904l-96.93903,0l0,-0.76993z"/>
      <path id="svg_127" stroke="null" d="m119.00927,122.95255l-20.26361,0c-6.5727,0 -12.0492,-7.69397 -12.0492,-16.15693l0,-136.94305c0,-8.463 5.4765,-16.15602 12.0492,-16.15602l20.26426,0c6.57205,0 11.50108,7.69302 11.50108,16.15602l0,136.17398c0,9.23203 -4.9297,16.926 -11.50173,16.926zm-20.26361,-153.86901c-0.54744,0 -1.09555,0.76903 -1.09555,0.76903l0,136.17398c0,0.76907 0.54745,1.539 1.09555,1.539l20.26426,0c0.54744,0 0.54744,-0.76907 0.54744,-0.76907l0,-136.94391c0,0 0,-0.76903 -0.54744,-0.76903l-20.26426,0z"/>
      <path id="svg_128" stroke="null" d="m403.80176,122.95255l-20.26425,0c-6.57205,0 -12.04919,-7.69306 -12.04919,-16.15607l0,-136.94391c0.00064,-8.463 5.47711,-16.15602 12.0498,-16.15602l20.26425,0c6.57205,0 11.5011,7.69302 11.5011,16.15602l0,136.17398c0,9.23203 -4.92969,16.926 -11.50171,16.926zm-20.26364,-153.86901c-0.54742,0 -1.09555,0.76903 -1.09555,0.76903l0,136.17398c0,0.76907 0.54745,0.76907 0.54745,0.76907l20.26425,0c0.54745,0 0.54745,-0.76907 0.54745,-0.76907l0,-136.17398c0.54745,0 0.54745,-0.76903 0,-0.76903l-20.26361,0z"/>
      <path id="svg_129" stroke="null" d="m349.03421,415.30347l-64.07813,0c-6.57205,0 -12.04919,-7.69293 -12.04919,-16.15601l0,-53.08499c0,-4.61597 2.19046,-7.69299 5.47647,-7.69299l76.6748,0c3.28601,0 5.4765,3.07703 5.4765,7.69299l0,53.08499c0.00064,8.46216 -4.92841,16.15601 -11.50046,16.15601zm-65.17368,-61.54788l0,45.39102c0,0.76904 0.54745,0.76904 0.54745,0.76904l64.07816,0c0.54742,0 0.54742,-0.76904 0.54742,-0.76904l0,-45.39102l-65.17303,0z"/>
      <path id="svg_130" stroke="null" d="m365.46436,353.75558l-96.93903,0c-6.57205,0 -12.04919,-7.69305 -12.04919,-16.15607l0,-28.46594c0,-9.23199 5.47647,-16.15598 11.50107,-16.15598l96.93903,0c6.57205,0 11.5011,7.69296 11.5011,16.15598l0,28.46594c0.5481,8.46301 -4.38092,16.15607 -10.95297,16.15607zm-96.93903,-46.16101c-0.54745,0 -0.54745,0.76901 -0.54745,0.76901l0,28.46597c0,0.76904 0.54745,0.76904 0.54745,0.76904l96.939,0c0.54745,0 0.54745,-0.76904 0.54745,-0.76904l0,-28.46597c0,-0.76901 -0.54745,-0.76901 -0.54745,-0.76901l-96.939,0z"/>
      <path id="svg_131" stroke="null" d="m355.05881,307.59457l-76.67545,0c-3.28601,0 -5.47647,-3.07706 -5.47647,-7.69302l0,-200.02997l-43.81451,0l0,200.02908c0,4.61597 -2.19046,7.69302 -5.47649,7.69302l-76.67477,0c-3.28603,0 -5.47649,-3.07706 -5.47649,-7.69302l0,-200.02908l-16.43011,0c-3.28603,0 -5.47649,-3.07702 -5.47649,-7.69305l0,-107.70798c0,-4.61601 2.19047,-7.69304 5.47649,-7.69304l251.93158,0c3.28601,0 5.47647,3.07703 5.47647,7.69304l0,107.70798c0,4.61604 -2.19046,7.69305 -5.47647,7.69305l-16.43015,0l0,200.02908c-0.00064,4.61685 -2.1911,7.69391 -5.47714,7.69391zm-71.19827,-15.38696l65.72116,0l0,-200.02997c0,-4.61599 2.19046,-7.69305 5.47647,-7.69305l16.43015,0l0,-92.32102l-240.97731,0l0,92.32102l16.43011,0c3.28604,0 5.47649,3.07699 5.47649,7.69305l0,200.02997l65.72115,0l0,-200.02997c0,-4.61607 2.19046,-7.69305 5.47649,-7.69305l54.76752,0c3.28601,0 5.47647,3.07699 5.47647,7.69305l0,200.02997l0.00131,0z"/>
      <path id="svg_132" stroke="null" d="m168.84839,99.87158l-21.90727,0c-3.28603,0 -5.47649,-3.07702 -5.47649,-7.69305s2.19046,-7.69303 5.47649,-7.69303l21.90727,0c3.28601,0 5.47649,3.07703 5.47649,7.69303s-2.19048,7.69305 -5.47649,7.69305z"/>
      <path id="svg_133" stroke="null" d="m223.61589,99.87158l-10.95364,0c-3.28601,0 -5.47649,-3.07702 -5.47649,-7.69305s2.19048,-7.69303 5.47649,-7.69303l10.95364,0c3.28603,0 5.47649,3.07703 5.47649,7.69303s-2.19046,7.69305 -5.47649,7.69305z"/>
      <path id="svg_134" stroke="null" d="m311.24429,99.87158l-32.86093,0c-3.28601,0 -5.47647,-3.07702 -5.47647,-7.69305s2.19046,-7.69303 5.47647,-7.69303l32.8609,0c3.28604,0 5.47653,3.07703 5.47653,7.69303s-2.19049,7.69305 -5.4765,7.69305z"/>
      <path id="svg_135" stroke="null" d="m355.05881,99.87158l-10.95361,0c-3.28601,0 -5.4765,-3.07702 -5.4765,-7.69305s2.19049,-7.69303 5.4765,-7.69303l10.95361,0c3.28604,0 5.4765,3.07703 5.4765,7.69303s-2.19046,7.69305 -5.4765,7.69305z"/>
     </g>
    </g>
   </g>
   <rect stroke-width="0" id="svg_143" height="82" width="30" y="287" x="13" stroke="#000" fill="#fff"/>
   <rect stroke-width="0" id="svg_144" height="40" width="30" y="300" x="166" stroke="#000" fill="#fff"/>
   <rect stroke="null" id="svg_145" height="26" width="93.00001" y="290" x="58" stroke-width="0" fill="#FFE100"/>
   <rect stroke="null" id="svg_146" height="26" width="91" y="351" x="147" stroke-width="0" fill="#FFE100"/>
   <rect stroke="null" id="svg_147" height="26" width="92" y="331" x="59" stroke-width="0" fill="#FFE100"/>
   <rect stroke-width="0" id="svg_148" height="82" width="30" y="129" x="13" stroke="#000" fill="#fff"/>
   <rect stroke-width="0" id="svg_149" height="40" width="30" y="163" x="166" stroke="#000" fill="#fff"/>
   <rect stroke="null" id="svg_150" height="93.00001" width="15" y="271" x="151" stroke-width="0" fill="#000000"/>
   <rect stroke="null" id="svg_151" height="115" width="16" y="269" x="43" stroke-width="0" fill="#000000"/>
  </g>
 </g>
</svg>