<?xml version="1.0" encoding="UTF-8" ?>
<!DOCTYPE svg PUBLIC "-//W3C//DTD SVG 1.1//EN" "http://www.w3.org/Graphics/SVG/1.1/DTD/svg11.dtd">
<svg width="500pt" height="500pt" viewBox="0 0 500 500" version="1.1" xmlns="http://www.w3.org/2000/svg">
<g id="#ffffffff">
</g>
<g id="#0392d5ff">
<path fill="#0392d5" opacity="1.00" d=" M 256.31 127.39 C 257.33 128.36 258.30 129.39 259.25 130.44 C 264.28 130.53 269.32 130.38 274.36 130.61 C 274.41 131.99 274.46 133.37 274.51 134.76 C 269.17 135.26 263.80 135.09 258.44 135.16 C 258.47 136.54 258.50 137.91 258.54 139.29 C 259.08 139.63 260.17 140.29 260.72 140.63 C 261.15 143.29 261.35 145.98 261.48 148.67 C 262.16 148.65 263.54 148.61 264.22 148.58 C 264.75 148.93 265.81 149.61 266.33 149.95 C 266.68 151.81 267.02 153.67 267.36 155.53 C 271.24 155.53 275.13 155.37 279.01 155.58 C 281.83 155.72 284.49 157.71 285.41 160.37 C 286.31 165.96 285.36 171.64 285.86 177.26 C 287.21 178.29 288.76 179.04 290.10 180.09 C 290.62 181.41 290.68 182.86 290.94 184.24 C 281.66 184.22 272.38 184.36 263.11 184.24 C 263.48 182.38 263.94 180.53 264.48 178.71 C 265.76 178.52 267.04 178.34 268.32 178.15 C 268.32 175.23 268.32 172.30 268.34 169.38 C 254.95 169.23 241.57 169.35 228.19 169.32 C 228.19 173.33 228.09 177.35 227.36 181.31 C 225.35 181.77 223.33 182.21 221.32 182.61 C 220.17 169.44 220.91 156.19 220.84 142.99 C 223.02 143.34 225.19 143.78 227.33 144.36 C 228.01 148.03 228.26 151.76 228.04 155.49 C 234.11 155.54 240.18 155.55 246.25 155.44 C 246.58 153.48 246.35 151.26 247.65 149.61 C 249.16 148.84 250.87 148.67 252.51 148.29 C 252.52 145.78 252.56 143.28 252.64 140.78 C 253.14 140.53 254.15 140.01 254.65 139.75 C 254.86 138.20 255.07 136.66 255.27 135.12 C 249.93 135.07 244.58 135.34 239.27 134.73 C 239.31 133.31 239.37 131.90 239.45 130.49 C 244.58 130.44 249.71 130.50 254.84 130.51 C 255.21 129.73 255.94 128.17 256.31 127.39 Z" />
<path fill="#0392d5" opacity="1.00" d=" M 70.68 142.96 C 75.99 140.13 82.24 141.42 87.99 141.26 C 96.14 141.22 104.23 145.67 107.97 153.00 C 111.72 160.08 110.53 168.32 110.73 176.01 C 110.57 182.22 111.47 188.84 108.59 194.61 C 104.78 202.20 96.57 207.08 88.15 207.43 C 79.95 207.75 71.75 207.40 63.55 207.57 C 63.56 190.05 63.44 172.54 63.61 155.02 C 63.43 150.07 66.27 145.21 70.68 142.96 M 77.77 155.40 C 78.15 168.07 77.42 180.77 78.23 193.42 C 81.84 193.30 85.54 193.82 89.10 192.97 C 93.25 192.13 96.37 188.14 96.49 183.95 C 96.69 177.62 96.70 171.28 96.54 164.95 C 96.66 160.78 93.48 157.25 89.84 155.69 C 85.86 154.98 81.79 155.38 77.77 155.40 Z" />
<path fill="#0392d5" opacity="1.00" d=" M 126.27 141.27 C 130.75 140.26 135.39 140.66 139.95 140.60 C 145.51 140.72 151.57 140.45 156.42 143.63 C 160.72 146.11 162.56 151.29 162.52 156.03 C 162.51 168.39 162.52 180.75 162.51 193.10 C 162.57 197.83 160.43 202.88 156.11 205.18 C 151.11 208.73 144.73 208.01 138.95 208.20 C 132.74 208.08 126.06 208.77 120.44 205.58 C 115.71 202.92 113.68 197.17 113.91 191.97 C 113.92 179.62 113.80 167.27 113.98 154.92 C 113.94 147.99 119.63 142.36 126.27 141.27 M 128.76 157.29 C 127.99 160.79 128.41 164.42 128.32 167.98 C 128.46 176.06 128.02 184.17 128.69 192.25 C 134.86 193.65 141.26 193.49 147.44 192.24 C 148.07 188.20 148.18 184.12 148.10 180.05 C 147.98 172.20 148.41 164.34 147.58 156.52 C 143.58 154.88 139.19 155.40 134.98 155.37 C 132.85 155.50 130.02 155.10 128.76 157.29 Z" />
<path fill="#0392d5" opacity="1.00" d=" M 170.79 144.52 C 173.19 143.51 175.59 142.51 178.02 141.57 C 178.56 141.82 179.66 142.33 180.21 142.59 C 188.61 155.03 197.45 167.17 205.70 179.71 C 206.11 171.79 205.68 163.86 205.93 155.94 C 206.02 151.81 207.93 147.77 211.14 145.17 C 213.73 142.98 217.13 142.25 220.35 141.52 C 219.89 159.01 220.56 176.50 220.34 193.98 C 220.22 200.49 214.78 205.18 209.10 207.30 C 208.31 207.33 206.73 207.40 205.94 207.43 C 205.78 204.85 206.20 201.91 204.21 199.90 C 195.99 189.18 188.28 178.04 179.72 167.58 C 179.44 176.07 179.87 184.57 179.60 193.06 C 179.52 198.29 176.59 203.73 171.64 205.83 C 169.71 206.79 167.57 207.23 165.50 207.78 C 165.40 191.18 165.57 174.58 165.45 157.98 C 164.97 152.85 167.30 148.13 170.79 144.52 Z" />
<path fill="#0392d5" opacity="1.00" d=" M 273.36 198.50 C 275.01 195.37 275.96 191.94 276.99 188.57 C 278.10 191.98 279.30 195.44 281.44 198.37 C 282.32 199.81 283.69 201.06 283.84 202.84 C 283.68 202.99 283.36 203.29 283.19 203.44 C 283.47 206.10 283.54 208.78 283.55 211.46 C 284.13 211.48 285.31 211.53 285.89 211.55 C 285.69 209.37 285.37 207.20 285.03 205.03 C 285.04 204.62 285.07 203.79 285.09 203.37 C 286.76 206.67 287.47 210.58 286.31 214.16 C 283.80 221.72 270.45 221.92 268.57 213.84 C 266.97 208.11 270.80 203.21 273.36 198.50 Z" />
<path fill="#0392d5" opacity="1.00" d=" M 273.42 230.22 C 275.99 228.76 278.93 228.23 281.78 227.60 C 281.93 231.07 282.03 234.56 281.82 238.04 C 281.67 239.93 281.63 241.84 281.72 243.75 C 282.44 255.48 281.65 267.24 281.95 278.99 C 282.02 283.78 282.17 289.07 278.94 292.99 C 275.81 297.22 270.56 298.91 265.55 299.55 C 265.42 281.03 265.63 262.50 265.50 243.98 C 265.27 238.40 268.43 232.78 273.42 230.22 Z" />
</g>
<g id="#dc4b2bff">
<path fill="#dc4b2b" opacity="1.00" d=" M 129.86 237.75 C 130.95 232.04 136.15 227.48 141.99 227.39 C 147.89 227.23 153.15 231.89 154.50 237.51 C 159.83 257.94 165.42 278.30 170.81 298.72 C 166.14 299.09 161.00 299.09 157.18 295.97 C 152.85 293.14 151.84 287.79 150.57 283.16 C 144.93 283.20 139.29 283.14 133.65 283.16 C 132.70 287.19 131.85 291.59 128.71 294.56 C 124.83 298.48 119.00 299.61 113.70 298.74 C 118.68 278.30 124.51 258.08 129.86 237.75 M 136.28 270.35 C 140.15 270.40 144.02 270.42 147.90 270.41 C 146.19 262.84 144.28 255.30 142.06 247.86 C 140.19 255.37 138.03 262.81 136.28 270.35 Z" />
<path fill="#dc4b2b" opacity="1.00" d=" M 394.38 228.18 C 399.28 225.90 404.84 226.79 410.07 226.63 C 418.43 226.47 427.67 229.22 432.51 236.51 C 436.90 242.63 437.25 250.59 436.38 257.81 C 435.40 265.06 430.79 271.37 424.63 275.15 C 428.93 282.39 433.99 289.13 438.44 296.28 C 435.48 297.74 432.32 299.18 428.92 298.69 C 424.34 298.68 420.55 295.56 418.05 291.98 C 414.95 287.49 411.84 283.01 408.96 278.39 C 406.55 278.31 404.15 278.31 401.75 278.32 C 401.33 283.43 400.28 288.83 396.68 292.72 C 393.72 296.55 389.04 298.49 384.33 298.96 C 384.25 280.63 384.32 262.30 384.28 243.97 C 384.06 237.32 388.28 230.81 394.38 228.18 M 401.63 243.44 C 401.70 249.79 401.64 256.14 401.63 262.49 C 405.66 262.43 409.80 262.95 413.74 261.90 C 421.58 259.84 421.75 246.48 414.05 244.09 C 410.03 242.92 405.76 243.57 401.63 243.44 Z" />
<path fill="#dc4b2b" opacity="1.00" d=" M 67.96 231.14 C 71.56 228.03 76.53 227.82 81.04 227.91 C 89.56 228.23 98.09 228.00 106.61 228.14 C 106.51 232.59 106.64 237.81 103.08 241.10 C 100.70 243.88 96.97 244.56 93.57 245.20 C 93.53 244.72 93.44 243.76 93.40 243.28 C 89.29 243.38 85.07 242.78 81.05 243.82 C 77.48 246.71 78.93 251.95 78.65 255.95 C 79.16 265.06 77.62 274.37 79.75 283.33 C 86.06 284.22 92.44 283.72 98.79 283.85 C 98.92 279.91 98.96 275.98 98.90 272.05 C 95.80 270.86 92.46 269.43 90.74 266.40 C 89.23 264.07 89.25 261.21 88.93 258.55 C 94.32 258.59 99.73 258.26 105.11 258.68 C 107.80 259.00 110.95 260.07 111.98 262.84 C 114.13 267.60 113.37 272.94 113.41 278.00 C 113.33 282.88 113.77 288.13 111.28 292.56 C 108.89 295.86 105.30 298.75 101.06 298.93 C 96.05 299.36 91.01 299.01 85.98 299.13 C 81.20 299.09 76.14 299.43 71.70 297.33 C 67.87 295.32 64.43 291.97 63.42 287.64 C 62.59 284.47 62.75 281.17 62.70 277.93 C 62.74 266.62 62.64 255.32 62.75 244.01 C 62.94 239.35 63.86 234.01 67.96 231.14 Z" />
<path fill="#dc4b2b" opacity="1.00" d=" M 173.37 237.44 C 177.17 231.63 184.10 228.25 190.96 228.17 C 198.52 228.09 206.09 228.00 213.65 228.32 C 213.16 233.93 210.62 239.67 205.40 242.36 C 200.37 245.48 194.28 243.58 188.82 244.78 C 184.55 246.60 184.91 253.64 189.26 255.17 C 193.86 256.02 198.72 255.09 203.21 256.67 C 207.07 258.17 210.46 260.78 213.14 263.92 C 216.07 267.50 217.06 272.16 218.09 276.56 C 218.61 265.36 218.02 254.15 218.41 242.96 C 218.56 236.98 222.70 231.26 228.39 229.34 C 231.42 228.08 234.77 228.29 237.99 228.25 C 247.13 228.34 256.27 228.17 265.41 228.39 C 264.84 235.43 260.47 242.57 253.24 244.22 C 247.28 245.12 241.20 244.49 235.19 244.69 C 234.67 249.21 234.70 253.78 235.14 258.31 C 242.81 258.21 250.48 258.22 258.15 258.30 C 257.81 262.35 256.88 266.77 253.52 269.44 C 248.58 274.05 241.39 273.69 235.12 273.53 C 234.24 279.97 236.28 287.35 231.97 292.89 C 228.87 297.33 223.62 299.41 218.42 300.06 C 218.06 292.77 218.62 285.47 218.04 278.19 C 216.94 284.57 214.32 291.10 208.76 294.86 C 203.16 299.15 195.77 299.26 189.03 299.13 C 183.20 299.06 177.35 299.28 171.52 298.83 C 172.45 293.64 174.18 287.85 179.24 285.25 C 184.81 281.57 191.71 283.50 197.90 282.48 C 201.97 281.13 202.70 274.75 199.00 272.51 C 194.75 271.01 190.09 272.29 185.77 271.14 C 178.22 269.03 171.88 262.80 170.09 255.11 C 168.76 249.11 169.82 242.51 173.37 237.44 Z" />
<path fill="#dc4b2b" opacity="1.00" d=" M 295.32 228.47 C 309.21 228.27 323.10 228.39 336.99 228.42 C 336.79 233.17 335.18 238.21 330.94 240.86 C 327.13 243.95 322.07 243.84 317.45 243.89 C 317.27 257.29 317.50 270.68 317.37 284.07 C 317.24 292.64 309.01 299.17 300.75 299.01 C 300.72 280.59 300.88 262.18 300.67 243.76 C 294.35 243.84 288.03 243.74 281.72 243.75 C 281.63 241.84 281.67 239.93 281.82 238.04 C 284.24 232.72 289.28 228.51 295.32 228.47 Z" />
<path fill="#dc4b2b" opacity="1.00" d=" M 338.20 235.15 C 341.54 229.90 347.92 227.50 353.97 227.84 C 363.64 228.13 373.38 227.14 382.99 228.47 L 383.30 227.53 C 383.38 227.82 383.54 228.42 383.62 228.72 C 383.33 228.94 382.74 229.39 382.44 229.62 C 381.54 234.44 379.77 239.67 375.25 242.23 C 368.26 246.44 359.72 244.02 352.02 244.65 C 351.93 248.25 351.93 251.85 351.92 255.45 C 358.57 255.47 365.21 255.39 371.86 255.55 C 370.78 260.70 369.38 265.77 368.20 270.90 C 362.79 271.27 357.37 271.11 351.96 271.13 C 351.92 274.83 351.92 278.53 352.03 282.23 C 361.01 282.26 370.00 282.14 378.99 282.40 C 378.35 287.56 376.39 292.87 371.93 295.92 C 367.40 299.42 361.43 298.86 356.06 299.11 C 351.97 299.04 347.61 299.15 343.91 297.15 C 339.26 294.59 335.67 289.73 335.63 284.28 C 335.34 272.53 335.58 260.78 335.46 249.03 C 335.53 244.32 335.19 239.12 338.20 235.15 Z" />
</g>
</svg>
